<?xml version="1.0" standalone="no"?>
<!DOCTYPE svg PUBLIC "-//W3C//DTD SVG 20010904//EN"
 "http://www.w3.org/TR/2001/REC-SVG-20010904/DTD/svg10.dtd">
<svg version="1.0" xmlns="http://www.w3.org/2000/svg"
 width="1018.000000pt" height="1018.000000pt" viewBox="0 0 1018.000000 1018.000000"
 preserveAspectRatio="xMidYMid meet">
<metadata>
Created by potrace 1.11, written by Peter Selinger 2001-2013
</metadata>
<g transform="translate(0.000000,1018.000000) scale(0.100000,-0.100000)"
fill="#000000" stroke="none">
<path d="M5670 8648 c1 -29 38 -1098 84 -2375 75 -2117 84 -2324 100 -2342 26
-28 805 -396 817 -384 5 5 44 1103 90 2558 65 2065 78 2553 68 2572 l-12 23
-574 0 -573 0 0 -52z"/>
<path d="M3288 7852 l-508 -147 0 -562 0 -563 -334 0 -335 0 5 -367 c6 -456 8
-487 37 -502 15 -7 121 -12 322 -14 l300 -2 6 -1430 c6 -1529 3 -1451 54
-1645 29 -111 56 -181 108 -284 121 -237 322 -434 573 -560 296 -149 690 -194
1054 -120 163 33 521 166 533 198 6 17 -235 819 -254 845 l-17 22 -95 -40
c-157 -67 -258 -93 -382 -98 -276 -12 -400 77 -477 342 l-23 80 0 1345 0 1345
560 3 c307 1 563 6 567 10 9 9 -332 807 -361 849 l-16 22 -377 1 -378 0 0 688
c0 606 -2 690 -16 710 -8 12 -21 22 -27 21 -7 0 -240 -67 -519 -147z"/>
<path d="M6154 3080 c-88 -12 -195 -52 -269 -100 -83 -54 -191 -169 -233 -247
-113 -213 -90 -487 56 -685 200 -270 553 -361 850 -218 116 55 241 179 294
290 69 142 87 314 49 462 -84 326 -410 543 -747 498z"/>
</g>
</svg>
