<?xml version="1.0" standalone="no"?>
<!DOCTYPE svg PUBLIC "-//W3C//DTD SVG 20010904//EN"
 "http://www.w3.org/TR/2001/REC-SVG-20010904/DTD/svg10.dtd">
<svg version="1.0" xmlns="http://www.w3.org/2000/svg"
 width="70.000000pt" height="70.000000pt" viewBox="0 0 70.000000 70.000000"
 preserveAspectRatio="xMidYMid meet">
<metadata>
Created by potrace 1.11, written by Peter Selinger 2001-2013
</metadata>
<g transform="translate(0.000000,70.000000) scale(0.100000,-0.100000)"
fill="#000000" stroke="none">
<path d="M298 563 c-13 -3 -18 -15 -18 -44 0 -28 -4 -39 -15 -39 -19 0 -20
-40 0 -66 9 -11 15 -42 15 -79 0 -80 14 -127 50 -165 25 -27 35 -31 72 -28 39
3 43 6 46 31 2 18 -2 29 -12 33 -9 3 -16 13 -16 21 0 10 -6 12 -20 8 -20 -6
-21 -3 -18 77 3 82 3 83 31 86 36 4 35 30 -3 67 -16 16 -30 37 -30 47 0 10 -7
21 -15 24 -8 4 -15 12 -15 20 0 14 -18 16 -52 7z"/>
</g>
</svg>
